<svg xmlns="http://www.w3.org/2000/svg" width="269.298" height="267.308" viewBox="0 0 269.298 267.308"><defs><style>.a{fill:#fefefe;}.b{fill:#e3680b;}.c{fill:#75ac21;}.d{fill:#4b2177;}.e{fill:#00899a;}.f{fill:#9f0404;}.g{fill:#008a9b;}.h{fill:#008a9a;}.i{fill:#4b2277;}.j{fill:#fcfcfd;}.k{fill:#4c2277;}.l{fill:#018a9b;}.m{fill:#75ad22;}.n{fill:#7db132;}.o{fill:#7cb032;}.p{fill:#4c2378;}.q{fill:#048a9b;}</style></defs><g transform="translate(694.844 -185.22)"><path class="a" d="M-426.07,313.506c-1.28,1.385-.47,2.3.405,3.42A4.909,4.909,0,0,0-426.07,313.506Zm-1.332-1.991a4.183,4.183,0,0,0,.718-2.268,4.218,4.218,0,0,0-1.108-2.99A133.663,133.663,0,0,0-560.853,185.22a133.156,133.156,0,0,0-90.971,35.745q-1.318,1.216-2.6,2.48c-.313.309-.622.614-.931.923a138.872,138.872,0,0,0-15.553,18.539c.024,0,.052,0,.076.008q-1.312,1.9-2.557,3.837c-1.12-.144-2.32-.409-3.074.783a71.345,71.345,0,0,0-5.491,9.978h2.344a132.548,132.548,0,0,0-8.721,21.111,5.371,5.371,0,0,0-.614,1.4,137.956,137.956,0,0,0-5.852,43.6,3.131,3.131,0,0,0,.45,1.69q.132,2.86.393,5.691c-.494,1.79.12,3.255.3,4.728a132.6,132.6,0,0,0,28.705,67.388c1.927,2.4,3.151,3.917,4.315,4.68q3.456,3.871,7.2,7.465l-.052.016a17.127,17.127,0,0,0,1.14,1.349,134.6,134.6,0,0,0,56.748,31.45,3.765,3.765,0,0,0,1,.148q4.256,1.108,8.625,1.939c6.012,1.782,14.047,2.492,22.905,2.34.739.012,1.481.02,2.224.02a133.546,133.546,0,0,0,39.614-5.968c10.825-2.894,20.08-6.659,25.394-10.881a134.131,134.131,0,0,0,29.5-22.3,3.733,3.733,0,0,0,3.512-1.048c2.757-3.006,5.41-6.113,8.661-9.805-.867,0-1.674,0-2.436,0A133.1,133.1,0,0,0-427.2,318.876Q-427.2,315.173-427.4,311.515ZM-574.226,390.6c-.024-.108-.052-.213-.076-.321a4.093,4.093,0,0,0-3.363-3.412c-26.979-7.293-44.242-24.39-51.438-51.466-.927-3.492-1.409-7.1-2.143-10.9l-2.2,1.634q-.247-2.51-.325-5.065c.173-.128.349-.253.522-.381a4.851,4.851,0,0,0,2.232-4.182c.871-19.574,8.553-36.042,22.925-49.347A69.471,69.471,0,0,1-590.016,255.3c-.614-.566-1.019-1.007-1.485-1.361-.349-.265-.7-.526-1.048-.791q2.161-1.048,4.4-1.947a5.914,5.914,0,0,0,6.125,1.14,68.642,68.642,0,0,1,47.9,2.276,70.444,70.444,0,0,1,22.841,15.436c.373-.959.674-1.7.955-2.448.12-.329.245-.662.365-.991,1.136,1.1,2.236,2.244,3.3,3.42-.12.313-.237.622-.357.935a4.452,4.452,0,0,0,.763,5.033,68.853,68.853,0,0,1,14.593,49.2,73.8,73.8,0,0,1-5.563,21.99c1.14.157,2.28.317,3.416.474q-.855,2-1.83,3.929c-.429-.06-.863-.12-1.292-.185a2.822,2.822,0,0,0-3.335,1.686,64.959,64.959,0,0,1-14.357,18.029c-15.175,13.321-32.915,19.044-52.991,17.487-2.589-.2-2.729.437-2.163,2.661Q-572.025,391.01-574.226,390.6Z" transform="translate(0)"/><path class="b" d="M-566.862,633.219c-8.043,7.092-16.018,14.268-24.025,21.4a3.938,3.938,0,0,1-2.681,1.353,3.765,3.765,0,0,1-1-.148,134.6,134.6,0,0,1-56.748-31.45,17.121,17.121,0,0,1-1.14-1.349l.052-.016c7.192-2.424,12.948-7.389,20.22-9.319a15.688,15.688,0,0,1,10.118.514c-6.855,4.226-9.131,10.889-10.841,17.9-.474,1.951.971,1.979,2.063,2.119,1.276.161,3.379.851,3.4-1.2.064-6.466,4.206-9.906,9.167-12.418,3.881-1.971,7.83-3.524,10.1-7.594.879-1.577,1.794-.763,2.4.389,1.393,2.641,3.693,3.263,6.374,2.753a5.841,5.841,0,0,0,4.744-4.86c.566-2.4.421-4.7-1.778-6.213-2.292-1.577-4.852-2.143-7.252-.277-1.617,1.26-2.1.911-2.38-.967a12.275,12.275,0,0,0-4.981-7.959c-5.619-4.359-11.567-7.947-19.044-7.79-.474.008-1.184-.028-1.389-.321-1.136-1.609-2.24-1.409-3.383-.092-1.316,1.517-2.135,3.243-1.268,5.226a1.877,1.877,0,0,0,2.6.843c5.053-1.934,8.75.795,12.466,3.64-4.728.337-9.428,1.14-14.043-.807-7.4-3.119-14.654-6.458-21.079-11.391-1.433-1.1-2.187-3.592-3.869-3.448-1.822.161-3.54,1.7-5.262,2.7-2.994,1.746-3.4,2.87-2.866,7.61,1.638.357,1.365-1.686,2.609-2.027,2.625-.714,4.712-1.4,7.224,1.112a61.4,61.4,0,0,0,17.19,12.5c2.6,1.216,2.781,2.1.357,3.757a86.1,86.1,0,0,1-10.524,6.382c-4.555,2.236-6.325,3.042-8.268,1.77-1.164-.763-2.388-2.276-4.315-4.68a132.6,132.6,0,0,1-28.705-67.388c-.185-1.473-.8-2.938-.3-4.728.024-.1.056-.193.088-.293,6.462,3.074,12.855,6.109,19.245,9.155,3.708,1.766,7.477,3.416,11.077,5.378,2.107,1.148,3.552.739,5.346-.622,8.152-6.185,16.379-12.261,24.756-18.486l2.2-1.634c.734,3.793,1.216,7.405,2.143,10.9,7.2,27.076,24.459,44.173,51.438,51.466a4.093,4.093,0,0,1,3.363,3.412c.024.108.052.213.076.321q3.678,15.352,7.529,30.672A3.678,3.678,0,0,1-566.862,633.219Z" transform="translate(-1.039 -207.747)"/><path class="c" d="M-148.32,394.9c-.5,23.018-6.751,44.4-18.458,64.751-.45-1.092-.763-1.826-1.06-2.573s-.57-1.5-.843-2.248c-3.235-8.842-6.554-17.652-9.637-26.546-.807-2.328-1.975-3.215-4.4-3.52-10.5-1.32-20.971-2.822-31.615-4.307-1.136-.156-2.276-.317-3.416-.474A73.806,73.806,0,0,0-212.188,398a68.853,68.853,0,0,0-14.593-49.2,4.452,4.452,0,0,1-.763-5.033c.12-.313.237-.622.357-.935,3.684-9.649,7.192-19.365,10.72-29.078a3.108,3.108,0,0,1,2.87-2.444c8.316-1.023,16.6-2.236,24.908-3.363,1.979-.269,4.074-.141,5.924-.771,2.942-1,4.507.145,6.237,2.408a137.778,137.778,0,0,1,22.809,44.4c.718,2.392.261,2.874-2.123,2.806-5.306-.157-10.62-.048-16.4-.048,1.4-3.155,1.064-5.531-2.344-7.83,2.316,0,3.652-.068,4.977.02,1.6.1,2.577-.04,2.541-2.155-.032-1.955-.722-2.4-2.468-2.272-1.694.124-3.408.032-5.113.032a4.168,4.168,0,0,0-4.2,2.822A3.83,3.83,0,0,0-177.6,352.2c1.425.959,1.3,1.9.863,3.251-.923,2.854-1.782,5.735-2.525,8.645-.474,1.858-1.08,2.428-3.263,1.939a15.865,15.865,0,0,0-19.165,12.125,16.033,16.033,0,0,0,11.479,19.1,16.139,16.139,0,0,0,17.993-7.1,16.3,16.3,0,0,0-1.794-19.257c-.678-.747-1.979-1.216-1.389-3.074,1.846,1.236,3.6,2.388,5.338,3.58q3.835,2.649,7.638,5.346c2.42,1.722,5.125,2.914,5.017,6.887-.076,2.793,2.9,4.608,6.016,4.828,2.436.173,2.376.14,1.28,2.244-.329.63-.582,1.83.482,1.995C-148.08,392.948-148.3,393.939-148.32,394.9Z" transform="translate(-279.475 -72.788)"/><path class="d" d="M-590.016,272.025a69.472,69.472,0,0,0-18.077,11.856c-14.373,13.3-22.055,29.773-22.925,49.347a4.851,4.851,0,0,1-2.232,4.182c-.173.128-.349.253-.522.381q-12.853,9.368-25.542,18.964a3.583,3.583,0,0,1-4.311.389q-14.557-7.02-29.171-13.927a3.6,3.6,0,0,1-1.557-1.184,3.131,3.131,0,0,1-.45-1.69,137.956,137.956,0,0,1,5.852-43.6,5.371,5.371,0,0,1,.614-1.4c.594-.9,1.453-1.2,2.926-1.184,8.629.124,17.266-.024,25.9.108,2.051.032,3.323-.454,3.837-2.476.859.618.714,1.577.835,2.448.522,3.7,2.059,5.47,5.434,6.265a7.141,7.141,0,0,0,7.851-3.03c.409-.566.747-1.184,1.12-1.774a2.125,2.125,0,0,1,.526-.759,1.948,1.948,0,0,1,.4-.285,7.086,7.086,0,0,1,2.007-.546c2.673-.413,5.334-.943,8.023-1.2,1.537-.145,2.071-.686,2.031-2.216-.084-3.411-.052-6.823-.012-10.239.016-1.385-.433-2.4-1.874-2.637-4-.67-6.815-3.215-9.548-5.908a12.085,12.085,0,0,1-1.056-1.072c-6.518-8.34-14.674-12.855-25.59-11.1a25.853,25.853,0,0,1-4.21.02c-.193,0-.389-.04-1.092-.128-.024,0-.052,0-.076-.008a138.873,138.873,0,0,1,15.553-18.539c.309-.309.618-.614.931-.923q1.288-1.264,2.6-2.48a134.809,134.809,0,0,1,37.74-24.535c.261,3.877-.851,7.3-1.357,10.748-1.152,7.887-2.561,15.741-3.969,23.588-.341,1.9.775,2.709,1.991,3.624q12.444,9.368,24.872,18.763c.349.265.7.526,1.048.791C-591.035,271.018-590.63,271.459-590.016,272.025Z" transform="translate(0 -16.72)"/><path class="e" d="M-295.724,643.92c-27.084.169-54.171.377-81.259.441-2.7.008-3.813.7-3.793,3.468.032,3.4-.265,6.807-.393,10.21-.185,4.909-2.352,9.444-2,14.561.662,9.661.068,8.681,8.87,8.705,3.311.008,6.622-.044,9.934.02,1.461.032,2.031-.257,2.007-1.979-.076-5.141,3.119-8.561,7.63-8.533,4.419.028,7.57,3.375,7.521,8.312-.02,1.622.385,2.1,1.947,2,1.8-.112,3.612-.024,5.418-.024h5.466a18.563,18.563,0,0,1-2.525,2.376c-5.314,4.222-14.569,7.987-25.394,10.881a182.272,182.272,0,0,1-41.837,5.948c-8.858.153-16.893-.558-22.905-2.34q-1.2-.361-2.3-.775c8.469-7.578,16.632-14.979,24.928-22.227a3.982,3.982,0,0,0,1.377-4.668c-2.657-10.371-5.105-20.8-7.786-31.161a.231.231,0,0,0-.016-.056c-.566-2.224-.425-2.862,2.163-2.661,20.076,1.557,37.816-4.166,52.991-17.487a64.96,64.96,0,0,0,14.357-18.029,2.822,2.822,0,0,1,3.335-1.686c.429.064.863.124,1.292.185,10.628,1.541,21.244,3.094,31.884,4.515,1.529.2,1.939.919,2.38,2.135,3.741,10.4,7.554,20.774,11.318,31.165A4.889,4.889,0,0,1-295.724,643.92Z" transform="translate(-158.942 -247.804)"/><path class="f" d="M-348.253,231.43c-9.733,1.256-19.466,2.537-29.211,3.733-1.509.185-1.613,1.308-1.979,2.28q-5.527,14.84-11.013,29.7c-.12.329-.245.662-.365.991-.281.747-.582,1.489-.955,2.448a70.444,70.444,0,0,0-22.841-15.436,68.642,68.642,0,0,0-47.9-2.276,5.914,5.914,0,0,1-6.125-1.14c-.008-.008-.02-.016-.028-.024q-12.221-9.53-24.7-18.719a3.887,3.887,0,0,1-1.75-4.311c1.806-10.56,3.588-21.127,5.238-31.715a2.938,2.938,0,0,1,2.167-2.733,133.1,133.1,0,0,1,58.514-7.542,135.342,135.342,0,0,1,26.405,5.206,5.3,5.3,0,0,1-3.195.417q-29.355.03-58.71.016c-4.295,0-4.993.718-5,5.1-.008,4.716.008,9.432-.008,14.152,0,1.634.389,3.3-1.481,4.475a1.571,1.571,0,0,0,.177,2.6c1.927,1.276,3.664,2.621,6.378,2.609,36.03-.124,72.06.08,108.085-.245,5.884-.056,8.336,3.46,12.053,7.1h-10.407c-.012-.177-.108-.409-.032-.55,2.649-5.017,2.46-5.334-3.2-5.334h-27.1c-3.833,0-4.1.4-2.529,3.813.321.694.738,1.345,1.184,2.151h-45.341c-.052-.185-.2-.413-.132-.538,2.633-5.222,2.633-5.222-3.183-5.222h-27.1c-3.857,0-4.178.554-2.332,4.03.269.506.606.971,1.116,1.79-2.215,0-4.078.036-5.94-.008-1.473-.036-2.083.51-1.549,1.991,1.128.662,2.36.321,3.536.321q58.114.03,116.233.072C-350.308,230.628-348.843,229.681-348.253,231.43Z" transform="translate(-119.501 -0.52)"/><path class="c" d="M-131.6,469.7a10.793,10.793,0,0,1-.042,14.395,11.148,11.148,0,0,1-14.206,2.114,11.114,11.114,0,0,1-4.353-14.145c2.228-4.867,7.8-7.612,12.645-6.355,1.628.422,1.963,1.061,1.445,2.694-.84,2.648-1.863,5.082-4.341,6.592-1.061.647-1.776,1.474-1.149,2.7.7,1.362,1.876.785,2.888.389C-135.607,476.863-133.528,474.423-131.6,469.7Z" transform="translate(-325.438 -167.729)"/><path class="g" d="M-250.572,737.952c-2.8,0-5.6-.055-8.392.02-1.691.045-2.382-.712-2.322-2.321,0-.1,0-.2,0-.3-.368-7.477-.37-7.51,7.237-7.842,3.688-.161,7.384-.112,11.072-.276,2.125-.094,3.01.576,3.032,2.879.074,7.83.155,7.829-7.629,7.84Q-249.073,737.955-250.572,737.952Z" transform="translate(-259.473 -324.467)"/><path class="h" d="M-186.577,737.4c-2.7,0-5.4-.032-8.1.012-1.648.026-2.417-.7-2.323-2.346a2.869,2.869,0,0,0,0-.3c-.351-7.6-.356-7.69,7.057-8.137a67.443,67.443,0,0,1,11.086.01c5.076.537,1.892,4.66,2.561,7.087.475,1.723.391,3.686-2.5,3.507-2.586-.161-5.189-.034-7.784-.034Z" transform="translate(-297.963 -323.977)"/><path class="c" d="M-79.159,454.252c-4.647-3.128-9.284-6.27-13.95-9.37a1.431,1.431,0,0,1-.623-2c.33-.9.55-1.642,1.753-1.63,6.319.057,12.638.059,18.957.091.6,0,1.391.049,1.491.736.606,4.15,2.961,8.139,1.1,12.534-.427,1.005-1,1.556-2,1.333-.906-.2-1.592-.622-.8-1.843,1.328-2.051,1.21-2.177-1.351-2.662-3.355-.635-4.238-.12-4.364,2.551Z" transform="translate(-359.75 -153.273)"/><path class="f" d="M-299.863,220.81c0,2.808-.09,5.621.029,8.424.091,2.126-.52,3.019-2.864,3.007-6.488-.032-6.488.073-6.488-6.472,0-4.614.081-9.23-.037-13.842-.051-2,.68-2.639,2.614-2.6,7.764.152,6.654-.912,6.743,6.367C-299.845,217.4-299.862,219.105-299.863,220.81Z" transform="translate(-230.848 -14.431)"/><path class="f" d="M-273.274,220.69c0,3.11-.051,6.22.021,9.328.035,1.52-.468,2.183-2.066,2.15-8.689-.183-7.133,1.236-7.265-6.649-.073-4.412.059-8.828-.043-13.24-.05-2.164.656-3,2.936-3.01,6.418-.014,6.418-.106,6.418,6.3Q-273.273,218.133-273.274,220.69Z" transform="translate(-246.769 -14.396)"/><path class="e" d="M-286.237,740.974c0,3.2-.11,6.4.043,9.594.109,2.287-.824,3.106-2.988,2.916a24,24,0,0,0-2.7-.013c-1.516.039-2.182-.736-2.185-2.2-.017-7.1-.024-14.193-.067-21.289-.01-1.557.759-2.15,2.215-2.12a28.823,28.823,0,0,0,3-.014c1.953-.165,2.716.737,2.691,2.626C-286.275,733.977-286.241,737.476-286.237,740.974Z" transform="translate(-239.883 -324.833)"/><path class="f" d="M-413.785,219.294q-3.45,0-6.9,0c-.5,0-1.133.189-1.479-.045-2.9-1.953-.677-4.876-1.28-7.293-.343-1.376.5-1.945,1.89-1.936,5.3.036,10.6.016,15.9.015.976,0,1.905.2,1.944,1.367.073,2.2.073,4.4-.008,6.6-.044,1.2-.994,1.307-1.967,1.3C-408.385,219.281-411.085,219.292-413.785,219.294Z" transform="translate(-162.321 -14.846)"/><path class="f" d="M-359.962,219.242c-2.6,0-5.206-.063-7.806.023-1.518.05-2.08-.47-2.192-2.036-.52-7.255-.565-7.252,6.6-7.252,3.5,0,7.01.108,10.507-.038,2.273-.095,2.97.828,2.953,2.984-.064,7.882.269,6.15-6.154,6.315C-357.359,219.271-358.661,219.243-359.962,219.242Z" transform="translate(-194.369 -14.794)"/><path class="i" d="M-598.948,348.772c-6.619,0-12.287-.016-17.955.014-1.061.006-1.412-.44-1.366-1.436s.006-2,.006-3c0-7.007.191-7.145,7.351-6.333a3.69,3.69,0,0,1,2.267,1.266C-605.638,342.218-602.638,345.16-598.948,348.772Z" transform="translate(-45.839 -91.268)"/><path class="j" d="M-581.527,403c-2.236,4.716-5.592,6.532-9.97,5.394-4.111-1.068-6.078-4.278-5.8-9.469.081-3.6,3.056-4.929,5.329-6.811,1.329.816,2.97-.682,4.24.572,3.371-.528,4.285,2.544,6.163,4.205C-581.23,398.928-580.566,400.961-581.527,403Z" transform="translate(-58.379 -123.857)"/><path class="k" d="M-647.4,344.179c0,4.917,0,4.917-4.836,4.917H-662.74a71.347,71.347,0,0,1,5.491-9.978c.755-1.192,1.955-.927,3.074-.783a5.666,5.666,0,0,0,.807.06C-647.4,338.311-647.4,338.36-647.4,344.179Z" transform="translate(-19.219 -91.583)"/><path class="f" d="M-238.669,218.863c-2.6,0-5.21-.05-7.812.02-1.541.041-2.219-.62-2.2-2.114.01-.9,0-1.8,0-2.7,0-4.527,1.314-5.645,5.534-4.126a80.382,80.382,0,0,1,13.376,6.721c.5.3,1.094.607.913,1.367-.223.941-1.013.824-1.692.828C-233.261,218.871-235.965,218.862-238.669,218.863Z" transform="translate(-267.088 -14.415)"/><path class="l" d="M-118.435,726.649c-3.251,3.692-5.9,6.8-8.661,9.805a3.733,3.733,0,0,1-3.512,1.047c-.726-.092-1.457-.265-2.139-.369-1.806-.277-1.144-2.091-1.16-3.283-.088-7.116-.064-7.124,7.056-7.2,1.87-.016,3.737-.012,5.98-.008C-120.109,726.649-119.3,726.649-118.435,726.649Z" transform="translate(-335.737 -324.118)"/><path class="f" d="M-312.186,297.275c-.9-1.237-2.205-.631-3.3-.633q-58.036-.055-116.072-.057c-1.135,0-2.409.508-3.417-.51h128.25C-308.553,296.593-310.263,297.533-312.186,297.275Z" transform="translate(-155.569 -66.363)"/><path class="m" d="M-39.365,487.849a4.184,4.184,0,0,1-.718,2.268,4.212,4.212,0,0,1-3.464,1.931,4.593,4.593,0,0,1-4.295-4.5,4.457,4.457,0,0,1,4.459-3.977,4.11,4.11,0,0,1,2.91,1.292A4.218,4.218,0,0,1-39.365,487.849Z" transform="translate(-387.319 -178.602)"/><path class="f" d="M-192.253,286.508c2.785-4.325,2.785-4.325,5.269,0h-5.269Z" transform="translate(-300.872 -58.694)"/><path class="f" d="M-378.909,286.4h-4.555c.8-1.188.729-3.021,2.366-3.092C-379.3,283.232-380.042,285.571-378.909,286.4Z" transform="translate(-186.405 -58.72)"/><path class="a" d="M-558.024,410.129l-.04-6.109c1.436,1.1-.181,3.915,2.438,4.356C-556.438,408.943-557.549,409.1-558.024,410.129Z" transform="translate(-81.882 -130.983)"/><path class="n" d="M-56.957,472.987c1.618-.024,3.263-.085,3.1,2.491a6.661,6.661,0,0,1-3.316-2.233A.479.479,0,0,1-56.957,472.987Z" transform="translate(-381.74 -172.266)"/><path class="a" d="M-579.742,391.633c-1.406-.242-2.983.783-4.24-.572C-582.56,391.179-580.835,389.065-579.742,391.633Z" transform="translate(-66.367 -122.802)"/><path class="f" d="M-211.855,286.02l1.641-2.726,1.017,2.081C-209.688,287.214-210.885,286.151-211.855,286.02Z" transform="translate(-289.138 -58.711)"/><path class="f" d="M-166.843,286.076l1.585-2.687,1.06,2.049C-164.688,287.277-165.879,286.2-166.843,286.076Z" transform="translate(-316.084 -58.768)"/><path class="f" d="M-358.95,286.937c.861-.254.871-4.207,2.618-.6C-356.845,288.1-358,287.089-358.95,286.937Z" transform="translate(-201.08 -59.629)"/><path class="f" d="M-403.753,286.375l1.516-2.5,1.027,1.884C-401.708,287.4-402.791,286.636-403.753,286.375Z" transform="translate(-174.259 -59.058)"/><path class="o" d="M-25.767,508.27c-.875-1.124-1.686-2.035-.405-3.42A4.909,4.909,0,0,1-25.767,508.27Z" transform="translate(-399.898 -191.344)"/><path class="f" d="M-167.551,289.133c.921-.049,1.977.46,2.645-.638.45.375,1.578.813.13,1.213a10.8,10.8,0,0,1-2.958.019.309.309,0,0,1-.239-.128C-168.164,289.156-167.787,289.2-167.551,289.133Z" transform="translate(-315.376 -61.825)"/><path class="f" d="M-212.545,289.124c.926-.049,1.987.455,2.658-.646.426.381,1.562.822.128,1.221a10.718,10.718,0,0,1-2.941.021.32.32,0,0,1-.243-.121C-213.158,289.162-212.783,289.2-212.545,289.124Z" transform="translate(-288.448 -61.815)"/><path class="f" d="M-359.635,289.189c.911-.034,1.947.476,2.618-.6.3.337,1.4.7.418,1.107-.919.384-2.12.1-3.2.1a.311.311,0,0,1-.24-.126C-360.236,289.237-359.876,289.259-359.635,289.189Z" transform="translate(-200.396 -61.88)"/><path class="f" d="M-404.506,289.185c.878-.084,1.914.483,2.543-.618.3.342,1.388.717.4,1.118-.93.377-2.129.092-3.21.087a.279.279,0,0,1-.216-.148C-405.106,289.185-404.752,289.24-404.506,289.185Z" transform="translate(-173.506 -61.868)"/><path class="j" d="M-246.786,787.646a6.241,6.241,0,0,1-6.2,6.354,6.4,6.4,0,0,1-6.43-6.523,6.465,6.465,0,0,1,6.451-6.51A6.311,6.311,0,0,1-246.786,787.646Z" transform="translate(-260.665 -356.639)"/><path class="p" d="M-579.682,405.938a4.919,4.919,0,0,1-4.547,4.722,4.787,4.787,0,0,1-4.893-4.625,5.013,5.013,0,0,1,4.488-4.817A5.17,5.17,0,0,1-579.682,405.938Z" transform="translate(-63.289 -129.303)"/><path class="q" d="M-244.892,792.785c-.193,1.764-1.184,2.935-2.863,2.96a2.768,2.768,0,0,1-2.991-3.046,2.7,2.7,0,0,1,2.8-2.915C-245.974,789.708-245.155,791.035-244.892,792.785Z" transform="translate(-265.856 -361.917)"/></g></svg>