<?xml version="1.0" encoding="utf-8"?>
<!-- Generator: Adobe Illustrator 23.0.5, SVG Export Plug-In . SVG Version: 6.00 Build 0)  -->
<svg version="1.1" id="Layer_1" xmlns="http://www.w3.org/2000/svg" xmlns:xlink="http://www.w3.org/1999/xlink" x="0px" y="0px"
	 viewBox="0 0 1080 1080" style="enable-background:new 0 0 1080 1080;" xml:space="preserve">
<style type="text/css">
	.st0{fill:#FFFFFF;}
</style>
<g>
	<g>
		<path class="st0" d="M574.8,503.8c0,6.5,0,13,0,19.5c0,4.1-1.4,5.4-5.5,5.6c-1.8,0.1-3.6,0.1-5.3,0c-4.7-0.4-8,0.3-11.2,5
			c-5.6,8.4-18.4,6.8-23.1-2.3c-1.1-2.1-2.3-2.8-4.6-2.8c-10.6,0.1-21.1,0.1-31.7,0c-2,0-3.2,0.4-4.1,2.4c-2.4,5.2-6.7,7.8-12.4,7.9
			c-5.9,0.1-10.3-2.6-12.8-7.9c-0.9-1.9-2-2.6-4.1-2.5c-2.8,0.1-5.6,0-8.4,0c-2.9,0-4.6-1.4-4.8-4.3c-0.7-12.9-1-25.7,2.9-38.2
			c3.2-10.2,7.8-13.5,18.4-13.5c31.2,0,62.4,0,93.5,0c1.8,0,3.6,0.1,5.3,0.3c4,0.5,6.5,2.8,7.2,6.7c0.4,1.9,0.6,3.8,0.7,5.7
			C574.9,491.6,574.8,497.7,574.8,503.8z M483.6,478.5c-5.9,0-11.4,0.2-16.8-0.1c-5.1-0.2-8.2,2.2-10,6.5c-3.8,9-3.7,18.5-3.3,29.1
			c11.3-5.2,18-16.6,30.1-18.5C483.6,489.8,483.6,484.4,483.6,478.5z M545.4,478.5c0,5.7,0,11.1,0,16.8c7.4,0,14.5,0.1,21.6-0.1
			c0.8,0,2.2-1.2,2.2-1.9c0-3.9,0-7.9-0.6-11.7c-0.2-1.2-2.1-2.9-3.3-2.9C558.7,478.4,552.1,478.5,545.4,478.5z M490,495
			c7.2,0,14.2,0,21.3,0c0-5.6,0-10.8,0-16.3c-7.2,0-14.2,0-21.3,0C490,484.3,490,489.6,490,495z M517.8,478.5c0,5.8,0,11.2,0,16.6
			c7.2,0,14.1,0,21.1,0c0-5.6,0-11,0-16.4c-1-0.1-1.8-0.2-2.5-0.2C530.2,478.5,524.2,478.5,517.8,478.5z M542.1,532.9
			c4.4,0,8.1-3.6,8-7.9c-0.1-4.2-3.6-7.8-7.8-7.9c-4.3-0.1-8,3.5-8.1,7.9C534.2,529.4,537.6,532.9,542.1,532.9z M476.5,532.9
			c4.5,0.1,8.1-3.4,8.1-7.8c0-4.3-3.7-8.1-8-8c-4.1,0-7.8,3.6-7.9,7.8C468.5,529.2,472.1,532.8,476.5,532.9z"/>
		<circle class="st0" cx="476.6" cy="525" r="8"/>
		<circle class="st0" cx="542.2" cy="525" r="7.9"/>
	</g>
	<g>
		<g>
			<path class="st0" d="M659.5,484.7c-1.1,0-1.8,0-2.6,0c0-0.1-0.1-0.2-0.1-0.3c0.8-0.2,1.6-0.6,2.4-0.7c9.8-1.9,19.7-2.6,29.6-2.4
				c11.1,0.2,22.3,0.2,33.2,2.8c2.2,0.5,4.4,1.1,6.7,1.7c1.2,0.3,1.7,0.8,1.3,2.2c-0.1,0.4,0.2,1.3,0.6,1.6c2.8,2.6,5.7,5.1,8.6,7.6
				c0.5,0.4,0.8,0.9,1.3,1.5c-1.8,0.9-3.4,1.7-5,2.6c-1.8,1.1-1.9,2-0.8,3.7c1.2,1.9,3,2.7,5.2,2.3c0.4-0.1,0.8-0.5,1.1-0.7
				c0.2,2.6,0.5,5.5,0.8,8.4c0,0.3,0.3,0.5,0.5,0.7c1.5,1.3,1.6,2.6,0.6,4.4c-0.3,0.6-1.6,1.1-0.4,2c0,0,0,0.1,0,0.1
				c-0.8,1.2-1.4,3-2.5,3.4c-2.8,1.1-5.8,1.7-8.9,2.5c-0.1-0.6-0.2-1.2-0.2-1.8c0.2-8.9-6-15.4-14.6-15.4c-8.2,0-14.9,6.9-14.9,15.2
				c0,3.8,0,3.8-3.9,3.8c-17.8,0-35.5-0.1-53.3,0c-2.5,0-5,0.5-7.5,0.7c-3.2,0.3-3.3,0.2-3.4-3c-0.1-2.7-0.1-5.3-0.6-8
				c-1-5.9-4.4-8.7-10.4-8.7c-3.1,0-6.3-0.1-9.3,1.2c-5.7,2.4-9.3,7.8-9.2,13.9c0,1.5,0,3.1,0,4.8c-4.2-0.2-8.6,0.7-11.5-3.4
				c-0.3-0.4-0.6-0.9-0.7-1.4c-0.4-2-0.9-3.9-1.2-5.9c-0.2-1.4-0.3-3,0.3-4.2c0.9-1.8,1.2-3.5,1.2-5.4c0-2.4,1.3-3.8,3.5-4.5
				c9.2-3.2,18.7-5.2,28.3-6.4c2.7-0.3,5.5-0.8,8.2-1c1.2-0.1,2.5,0.4,3.8,0.5c2.2,0.3,4.2-0.3,6-1.6c5.6-4.1,11.3-8.2,16.9-12.3
				C659.2,485.2,659.3,485.1,659.5,484.7z M652.9,499.9c0.2,0,0.4,0.1,0.6,0.1c7,0,14-0.1,20.9-0.1c1,0,1.2-0.6,1.4-1.4
				c0.7-3.6,1.5-7.2,2.3-10.8c0.3-1.3,0.5-2.6,0.8-3.9c-11-1.2-19.9,2.7-27.7,10C652.9,495.2,652.9,495.2,652.9,499.9z M683.1,483.8
				c0,5.2,0,10.3,0.1,15.3c0,0.3,0.8,0.8,1.2,0.8c5.5,0,11,0,16.5,0c1.2,0,1.6-0.4,1.6-1.6c-0.1-4.4,0-8.7,0-13.1
				c0-0.5-0.1-0.9-0.1-1.4C695.7,483.8,689.4,483.8,683.1,483.8z M707,483.8c0.4,0.7,0.6,1.1,0.8,1.5c2.4,4.1,5,8.2,7.3,12.4
				c1,1.9,2.3,2.5,4.4,2.2c1.6-0.3,3-0.5,3.9-2.2c2-4.1,2-4.5-1.2-7.9c-0.3-0.3-0.7-0.7-1-1C717.1,485.3,712.5,483.7,707,483.8z
				 M714.3,499.9c-0.2-0.5-0.2-0.7-0.3-0.9c-2.8-4.8-5.6-9.6-8.6-14.4c-0.4-0.6-1.4-0.7-2.5-1.2c0,5.6,0,10.6,0,15.7
				c0,0.3,0.6,0.8,0.9,0.8C707.3,499.9,710.7,499.9,714.3,499.9z M593.4,512.8c4,0.3,7.7-0.1,11.1-2.1c0.7-0.4,1.1-1.5,1.6-2.3
				c-0.8-0.5-1.6-1.4-2.3-1.3c-2.3,0.1-4.5,0.4-6.7,0.8C594.4,508.5,593.6,509.7,593.4,512.8z"/>
			<path class="st0" d="M730.1,526.1c0,7.6-6.2,13.7-13.9,13.7c-7.7,0-13.8-6.2-13.7-13.9c0-7.5,6.3-13.7,13.9-13.6
				C723.9,512.2,730.1,518.4,730.1,526.1z M716.2,535.9c5.5,0,10-4.4,10-9.9c0-5.5-4.4-10-9.9-10c-5.6,0-10.1,4.4-10.1,10
				C706.2,531.5,710.7,535.9,716.2,535.9z"/>
			<path class="st0" d="M605,526.2c0-7.7,6.2-13.8,13.9-13.8c7.7,0,13.8,6.2,13.8,13.8c0,7.5-6.2,13.7-13.8,13.7
				C611.2,540,605,533.8,605,526.2z M628.8,526.2c0-5.5-4.4-9.9-9.9-10c-5.6,0-10.1,4.5-10,10c0,5.5,4.5,9.9,10,9.9
				C624.4,536.1,628.8,531.6,628.8,526.2z"/>
			<path class="st0" d="M683.1,483.8c6.4,0,12.6,0,19.1,0c0.1,0.5,0.1,1,0.1,1.4c0,4.4,0,8.7,0,13.1c0,1.2-0.4,1.6-1.6,1.6
				c-5.5,0-11,0.1-16.5,0c-0.4,0-1.2-0.5-1.2-0.8C683.1,494.1,683.1,489,683.1,483.8z"/>
			<path class="st0" d="M707,483.8c5.5,0,10.1,1.5,14.1,5c0.4,0.3,0.7,0.7,1,1c3.2,3.3,3.2,3.8,1.2,7.9c-0.8,1.6-2.3,1.9-3.9,2.2
				c-2,0.3-3.3-0.2-4.4-2.2c-2.3-4.2-4.8-8.3-7.3-12.4C707.6,484.9,707.4,484.5,707,483.8z"/>
			<path class="st0" d="M714.3,499.9c-3.6,0-7,0-10.4,0c-0.3,0-0.9-0.5-0.9-0.8c-0.1-5,0-10.1,0-15.7c1.1,0.5,2.1,0.7,2.5,1.2
				c2.9,4.8,5.7,9.6,8.6,14.4C714.2,499.1,714.2,499.4,714.3,499.9z"/>
			<path class="st0" d="M593.4,512.8c0.2-3.1,1-4.3,3.7-4.9c2.2-0.5,4.5-0.8,6.7-0.8c0.8,0,1.5,0.9,2.3,1.3
				c-0.5,0.8-0.9,1.9-1.6,2.3C601.1,512.7,597.4,513.2,593.4,512.8z"/>
			<path class="st0" d="M725.1,525.9c0,5-4,9-8.9,9c-4.9,0-8.9-4-8.9-8.8c0-4.9,4-9,9-9C721.1,517.1,725.1,521.1,725.1,525.9z
				 M718.7,526c0-1.4-1.2-2.5-2.6-2.5c-1.3,0-2.4,1.2-2.4,2.5c0,1.3,1.1,2.4,2.4,2.5C717.5,528.5,718.7,527.4,718.7,526z
				 M713.6,523.7c-0.3-1.3-2-2.8-3.2-2.5c-0.6,0.1-1,1.1-1.5,1.7c1,0.7,1.9,1.5,3,2C712.2,525,713,524.1,713.6,523.7z M714.6,531.8
				c0.2,0.9-0.1,2.1,1.6,2.1c1.8,0,1.6-1.2,1.6-2.3c0.1-1.1-0.2-2.1-1.5-2.2C714.8,529.5,714.7,530.7,714.6,531.8z M717.8,520
				c-0.2-0.8,0.1-2-1.6-2c-1.8,0-1.5,1.3-1.6,2.3c0,1.1,0.3,2.1,1.6,2.1C717.7,522.4,717.8,521.2,717.8,520z M713.5,528.1
				c-0.6-0.4-1.4-1.2-1.7-1.1c-1.1,0.5-2,1.3-3,2c0.5,0.6,1,1.5,1.6,1.6C711.7,530.9,713.3,529.5,713.5,528.1z M724.2,523
				c-1.1-0.9-1.6-1.7-2.3-1.8c-1.3-0.2-3.1,1.4-2.8,2.3c0.2,0.6,1.1,1.5,1.5,1.4C721.8,524.5,722.7,523.8,724.2,523z M720.6,526.4
				c-0.7,1-1.3,1.5-1.5,2.2c-0.2,0.9,1.6,2.4,2.8,2.2c0.6-0.1,1.6-1.5,1.5-1.6C722.7,528.2,721.8,527.5,720.6,526.4z"/>
			<path class="st0" d="M618.8,535c-5,0-8.9-4-8.9-9c0-4.9,4-8.8,8.9-8.8c4.9,0,8.9,3.9,8.9,8.8C627.8,531,623.8,535,618.8,535z
				 M618.8,528.6c1.3,0,2.5-1,2.5-2.3c0.1-1.4-1.1-2.6-2.5-2.6c-1.4,0-2.5,1.1-2.5,2.5C616.4,527.5,617.5,528.6,618.8,528.6z
				 M620.5,520.2c-0.2-0.8,0.1-2.1-1.6-2.1c-1.8,0-1.5,1.2-1.6,2.3c0,1.1,0.2,2.1,1.5,2.1C620.3,522.5,620.4,521.4,620.5,520.2z
				 M614.3,525.6c0.8-0.9,1.4-1.3,1.6-1.9c0.3-0.9-1.5-2.6-2.8-2.4c-0.6,0.1-1.6,1.5-1.5,1.6C612.2,523.8,613.1,524.5,614.3,525.6z
				 M623.3,525.7c1.2-1.1,2.1-1.8,2.8-2.7c0.1-0.1-0.8-1.5-1.4-1.7c-1.2-0.3-3.2,1.4-2.9,2.3C622,524.3,622.6,524.8,623.3,525.7z
				 M623.4,526.6c-0.7,0.9-1.4,1.3-1.6,2c-0.3,1,1.5,2.6,2.9,2.4c0.6-0.1,1.6-1.5,1.5-1.6C625.4,528.4,624.5,527.7,623.4,526.6z
				 M616,528.2c-0.4-0.3-1.1-1.1-1.5-1c-1.1,0.5-2,1.3-3,2c0.4,0.6,0.8,1.5,1.4,1.7C613.9,531.3,615.9,529.6,616,528.2z
				 M617.2,532.1c0.2,0.8-0.1,2,1.6,2c1.7,0,1.5-1.2,1.6-2.2c0.1-1.1-0.2-2.3-1.6-2.2C617.4,529.7,617.3,530.9,617.2,532.1z"/>
			<path class="st0" d="M718.7,526c0,1.4-1.2,2.5-2.6,2.5c-1.3,0-2.4-1.2-2.4-2.5c0-1.3,1.1-2.4,2.4-2.5
				C717.5,523.5,718.7,524.6,718.7,526z M718.1,526c-0.9-0.6-1.5-1.3-1.9-1.2c-0.5,0.1-1.1,0.8-1.2,1.3c-0.1,0.3,0.7,1.1,1.1,1.1
				C716.7,527.2,717.2,526.6,718.1,526z"/>
			<path class="st0" d="M713.6,523.7c-0.6,0.4-1.3,1.3-1.7,1.2c-1.1-0.5-2-1.3-3-2c0.5-0.6,0.9-1.6,1.5-1.7
				C711.6,520.9,713.3,522.4,713.6,523.7z"/>
			<path class="st0" d="M714.6,531.8c0.1-1.2,0.2-2.3,1.7-2.3c1.4,0,1.6,1.1,1.5,2.2c-0.1,1,0.2,2.3-1.6,2.3
				C714.4,534,714.8,532.7,714.6,531.8z"/>
			<path class="st0" d="M717.8,520c0,1.3-0.1,2.4-1.6,2.4c-1.3,0-1.6-1.1-1.6-2.1c0-1-0.2-2.3,1.6-2.3
				C718,517.9,717.6,519.1,717.8,520z"/>
			<path class="st0" d="M713.5,528.1c-0.2,1.3-1.9,2.8-3.1,2.6c-0.6-0.1-1.1-1.1-1.6-1.6c1-0.7,1.9-1.5,3-2
				C712.2,526.9,713,527.7,713.5,528.1z"/>
			<path class="st0" d="M724.2,523c-1.5,0.8-2.5,1.6-3.6,1.9c-0.4,0.1-1.3-0.8-1.5-1.4c-0.3-0.9,1.5-2.4,2.8-2.3
				C722.6,521.3,723.2,522.1,724.2,523z"/>
			<path class="st0" d="M720.6,526.4c1.2,1.1,2.1,1.9,2.9,2.8c0.1,0.1-0.9,1.5-1.5,1.6c-1.2,0.2-3-1.3-2.8-2.2
				C719.3,527.9,719.9,527.3,720.6,526.4z"/>
			<path class="st0" d="M618.8,528.6c-1.4,0-2.4-1.1-2.5-2.4c0-1.4,1.1-2.5,2.5-2.5c1.4,0,2.5,1.2,2.5,2.6
				C621.3,527.6,620.2,528.6,618.8,528.6z M618.9,524.3c-0.6,0.9-1.2,1.4-1.2,1.9c0,0.4,0.8,1.2,1.1,1.2c0.5-0.1,1.2-0.7,1.3-1.1
				C620.1,525.8,619.5,525.2,618.9,524.3z"/>
			<path class="st0" d="M620.5,520.2c-0.1,1.2-0.2,2.4-1.7,2.3c-1.4,0-1.6-1.1-1.5-2.1c0-1-0.2-2.3,1.6-2.3
				C620.6,518.1,620.3,519.3,620.5,520.2z"/>
			<path class="st0" d="M614.3,525.6c-1.1-1.1-2-1.8-2.7-2.8c-0.1-0.1,0.9-1.5,1.5-1.6c1.3-0.2,3.1,1.5,2.8,2.4
				C615.7,524.3,615,524.8,614.3,525.6z"/>
			<path class="st0" d="M623.3,525.7c-0.7-0.9-1.3-1.4-1.5-2c-0.3-1,1.7-2.6,2.9-2.3c0.6,0.1,1.5,1.5,1.4,1.7
				C625.4,523.9,624.5,524.6,623.3,525.7z"/>
			<path class="st0" d="M623.4,526.6c1.2,1.1,2.1,1.8,2.8,2.7c0.1,0.1-0.9,1.5-1.5,1.6c-1.4,0.2-3.1-1.4-2.9-2.4
				C622,527.9,622.6,527.4,623.4,526.6z"/>
			<path class="st0" d="M616,528.2c0,1.4-2.1,3.1-3.1,2.7c-0.6-0.2-0.9-1.1-1.4-1.7c1-0.7,1.9-1.5,3-2
				C614.8,527.1,615.6,527.9,616,528.2z"/>
			<path class="st0" d="M617.2,532.1c0-1.3,0.1-2.4,1.6-2.4c1.4,0,1.7,1.1,1.6,2.2c0,1,0.1,2.1-1.6,2.2
				C617.1,534.1,617.4,533,617.2,532.1z"/>
			<path class="st0" d="M718.1,526c-0.9,0.6-1.5,1.2-1.9,1.2c-0.4,0-1.2-0.8-1.1-1.1c0.1-0.5,0.7-1.2,1.2-1.3
				C716.7,524.7,717.2,525.4,718.1,526z"/>
			<path class="st0" d="M618.9,524.3c0.6,0.9,1.2,1.5,1.1,1.9c-0.1,0.5-0.8,1.1-1.3,1.1c-0.3,0-1.1-0.8-1.1-1.2
				C617.7,525.7,618.3,525.2,618.9,524.3z"/>
			<path class="st0" d="M740.6,498.8c0.1,0.2,0.4,0.8,0.4,0.8l0.6,2l0.2,1.4l-0.2,2l-0.5,1.5l-1.5,1.3l-5.8-1.7l-0.2-3.9l1.5-2l5-2
				l0.1-0.1l0.2,0.3"/>
		</g>
		<circle class="st0" cx="618.8" cy="526.1" r="11.2"/>
		<circle class="st0" cx="716.2" cy="526" r="11.2"/>
	</g>
	<path class="st0" d="M304.1,530c0-4,0-8.1,0-12.1c0.8,0.1,1.6,0.2,2.6,0.3c0,1.5,0,3,0,4.4c1,0,1.9,0,2.9,0c0-2.2,0-4.2,0-6.4
		c5.5,0,10.8,0,16.1,0c0-1.1,0-1.9,0-2.9c-4.8,0-9.5,0-14.7,0c-0.6-3.3-1.4-6.4-1.6-9.7c-0.4-5.2-0.4-10.4,1.3-15.5
		c0.4-1.1,0.9-1.5,2.1-1.5c2.3,0.1,4.7,0,7.2,0c0-4.4,0-8.4,0-12.3c3.3,0,6.3,0,9.6,0c0,4.2,0,8.1,0,12.3c1,0,1.8,0,2.5,0
		c8.9,0,17.7-0.1,26.6,0c1.8,0,2.8-0.7,4-1.9c3.3-3.5,5.6-4,9.1-1.8c1,0.6,1.7,1.7,2.6,2.4c0.8,0.6,1.8,1.2,2.8,1.2
		c5.3,0.1,10.6,0.1,15.9,0.1c0.7,0,1.3-0.1,2.2-0.1c0-5.6,0-11.1,0-16.5c11.4,0,22.9,0,34.3,0c0,0.8,0,1.5,0,2.4
		c-3.1,0.9-6.1,1.9-9.1,2.8c0,3.9,0,7.6,0,11.5c3.4,0,6.6,0,9.9,0c0,13.4,0,26.8,0,40.2c-1.3,0-2.6,0-3.9,0
		c-0.2-1.4-0.2-2.5-0.4-3.6c-3-11.7-16.8-16.1-25.6-7.8c-2.6,2.4-4.9,3.1-8,2.8c-0.3,0-0.7,0.1-1,0c-0.8-0.3-1.7-0.5-2.2-1.1
		c-4.2-4.7-9.3-6.9-15.5-5.7c-6.5,1.3-10.7,5.5-12.1,12c-0.5,2.5-0.1,5.2-0.1,7.9c-0.5,0-1,0-1.5,0c-0.5,0-1.1-0.1-1.6-0.1
		c-1.1-7.9-6.8-10.6-11.3-10.4c-5.5,0.2-9.3,4.1-10.3,10.5c-0.9,0-1.7,0-2.6,0c-1-5.9-4.6-10-9.8-10.4c-7.3-0.5-11.1,3.6-12.2,10.5
		c-1.1,0-1.9-0.1-2.9-0.1c0-2,0-3.9,0-5.8c-1,0-1.8,0-2.8,0c-0.1,1.4-0.1,2.7-0.2,4.1C305.6,530,304.9,530,304.1,530z M398.3,481.4
		c0,1.8,0,3.6,0,5.4c0,1.4,0.6,2.1,2,2.1c1.7,0,3.3,0,5,0c1.3,0,1.9-0.6,1.9-1.9c0-3.7,0-7.4,0-11.1c0-1.4-0.7-2.1-2-2.1
		c-1.5,0-3.1,0-4.6,0c-1.6,0-2.3,0.8-2.3,2.3C398.3,477.9,398.3,479.7,398.3,481.4z"/>
	<path class="st0" d="M321.7,540c-5.2-1.6-7.1-5.2-6.7-9c0.5-4.7,3.8-7.5,8.2-7.7c4-0.1,8.2,3.1,8.2,7.9c0,4.5-1.5,6.7-6.4,8.7
		C323.9,540,322.8,540,321.7,540z"/>
	<path class="st0" d="M346,540c-3.4-1.1-5.6-3.3-6.3-7c-0.7-3.8,1.9-8,5.7-9.3c4.1-1.4,8.6,1.4,10,4.6c1.6,3.7,0.3,8.3-3.1,10.3
		c-0.9,0.5-2,0.9-3,1.4C348.2,540,347.1,540,346,540z"/>
	<path class="st0" d="M430.5,486.8c-3.3,0-6.5,0-9.9,0c0-3.9,0-7.7,0-11.5c3-0.9,6-1.8,9.1-2.8c0-0.9,0-1.6,0-2.4
		c1.3-0.3,0.8,0.7,0.8,1.3C430.5,476.5,430.5,481.7,430.5,486.8z"/>
	<path class="st0" d="M398.3,481.4c0-1.7,0-3.5,0-5.2c0-1.5,0.7-2.3,2.3-2.3c1.5,0,3.1,0,4.6,0c1.4,0,2,0.7,2,2.1
		c0,3.7,0,7.4,0,11.1c0,1.3-0.6,1.9-1.9,1.9c-1.7,0-3.3,0-5,0c-1.4,0-2-0.7-2-2.1C398.4,485,398.3,483.2,398.3,481.4z"/>
	<path class="st0" d="M398.3,523.8c-2.9,0-5.7,0-8,0c-0.5,2.9-0.6,5.8-1.6,8.3c-3.5,8.6-15,10.4-20.9,4c-3.7-4-5.1-8.7-2.9-14
		c2.1-5.2,6.2-8.1,11.7-8.3c4.9-0.2,8.6,2.3,11.5,6.1c0.5,0.6,1.4,1.1,2.1,1.1c2.6,0.1,5.3,0.1,7.9,0c0.7,0,1.7-0.5,2.1-1.1
		c2.8-4.3,7-6.4,11.8-6c5.4,0.4,9.5,3.1,11.5,8.6c2.7,7.5-1.3,15.2-8.6,17.1c-8.7,2.3-16.1-3.5-16.6-12.2
		C398.2,526.1,398.3,525,398.3,523.8z"/>
</g>
</svg>
